Coordinates
version=1
nRows=17
nColumns=23
inDegrees=yes

Units are S.I. units (second, meters, Newtons, ...)
If the header above contains a line with 'inDegrees', this indicates whether rotational values are in degrees (yes) or radians (no).

endheader
time	pelvis_tilt	pelvis_list	pelvis_rotation	pelvis_tx	pelvis_ty	pelvis_tz	hip_flexion_r	hip_adduction_r	hip_rotation_r	knee_angle_r	knee_angle_r_beta	ankle_angle_r	subtalar_angle_r	mtp_angle_r	hip_flexion_l	hip_adduction_l	hip_rotation_l	knee_angle_l	knee_angle_l_beta	ankle_angle_l	subtalar_angle_l	mtp_angle_l
      0.00000000	     -5.60244605	      8.68804226	      9.42150047	      2.14736962	      0.96496727	      1.05431357	      9.79953559	    -14.05373386	     -7.26146197	     93.25272236	      1.62756704	     -1.16363463	    -11.88982408	      0.00000000	     29.71891221	     13.88608184	     -2.09557818	     42.17422375	      0.73607906	     15.40598473	     -1.44191420	      0.00000000
      0.00666667	     -4.99529541	      8.64570407	      9.37113279	      2.14585767	      0.96337847	      1.05425309	     11.13620728	    -14.22051649	     -6.66804245	     95.09478108	      1.65971703	     -0.47730237	    -11.50894895	      0.00000000	     28.33504425	     13.75650051	     -1.60356609	     43.27682639	      0.75532311	     17.16015156	     -1.54267336	      0.00000000
      0.01333333	     -4.97827583	      8.66857822	      9.15858450	      2.14410374	      0.96067919	      1.05449078	     13.30694248	    -14.49561222	     -5.73657953	     97.10242858	      1.69475709	      0.43855537	    -10.61700645	      0.00000000	     27.64777489	     13.53978327	     -1.70117605	     44.41613704	      0.77520783	     18.89803105	     -0.89386427	      0.00000000
      0.02000000	     -4.51184297	      8.58616583	      8.99315385	      2.14267883	      0.95899718	      1.05459377	     14.84910888	    -14.53818042	     -4.99555311	     98.71423318	      1.72288839	      1.09030011	    -10.18152502	      0.00000000	     26.28542053	     13.31400765	     -1.35224697	     45.24854728	      0.78973613	     20.52235789	     -0.86240226	      0.00000000
      0.02666667	     -4.12107527	      8.50190238	      8.79235938	      2.14140185	      0.95756236	      1.05471715	     16.46066276	    -14.56760632	     -4.25198046	    100.10734930	      1.74720285	      1.74590238	     -9.78054691	      0.00000000	     24.87837709	     13.06799491	     -1.06480823	     45.85096946	      0.80025038	     22.15199842	     -0.77063661	      0.00000000
      0.03333333	     -4.17156961	      8.47145314	      8.33428639	      2.14008490	      0.95578417	      1.05521714	     18.73276798	    -14.61199898	     -3.16965650	    101.43213244	      1.77032468	      2.58807711	     -8.82362587	      0.00000000	     23.89035117	     12.65484470	     -1.47168230	     46.27939981	      0.80772790	     23.53041251	      0.21280442	      0.00000000
      0.04000000	     -4.07138430	      8.30387558	      7.99257927	      2.13903106	      0.95480425	      1.05554049	     20.69237408	    -14.45707589	     -2.35788727	    102.32978256	      1.78599163	      3.15536133	     -8.48638579	      0.00000000	     22.58496651	     12.19669646	     -1.56517253	     46.46337127	      0.81093881	     24.88225542	      0.85404012	      0.00000000
      0.04666667	     -3.92526514	      8.00547482	      7.90170116	      2.13836144	      0.95487472	      1.05537782	     22.36062255	    -14.22449205	     -1.95015302	    102.72920658	      1.79296289	      3.49445118	     -8.36607135	      0.00000000	     20.95747976	     11.86532552	     -1.00357278	     46.17591170	      0.80592169	     25.71185642	      1.00600009	      0.00000000
      0.05333333	     -3.79046190	      7.81384431	      7.16190979	      2.13772890	      0.95495173	      1.05623630	     24.29049707	    -13.82676756	     -0.96363503	    103.03706487	      1.79833603	      4.28908729	     -7.73170679	      0.00000000	     19.36393547	     11.11304630	     -1.75258883	     45.84906440	      0.80021713	     26.86078905	      1.97023948	      0.00000000
      0.06000000	     -3.93495496	      7.43906199	      7.07489341	      2.13751578	      0.95573816	      1.05599089	     26.10482235	    -13.57356269	     -0.78760826	    102.80830713	      1.79434346	      4.61210626	     -7.64073500	      0.00000000	     17.81623581	     10.68894210	     -1.32804383	     45.11176390	      0.78734881	     27.36275028	      2.17690866	      0.00000000
      0.06666667	     -3.80583588	      7.12099795	      6.25133906	      2.13733221	      0.95724023	      1.05693205	     27.82112097	    -12.84224830	      0.05259864	    102.37893805	      1.78684955	      5.31942969	     -7.25634047	      0.00000000	     15.88740488	     10.00986875	     -1.69665359	     44.08636009	      0.76945214	     27.80473412	      2.48932406	      0.00000000
      0.07333333	     -3.84616882	      6.69203093	      5.70067620	      2.13762028	      0.95920534	      1.05747982	     29.42182867	    -12.16500456	      0.43297312	    101.52786418	      1.77199551	      5.79229590	     -7.11884453	      0.00000000	     13.99796114	      9.32021075	     -1.86330625	     42.83966686	      0.74769324	     27.97997965	      3.06001803	      0.00000000
      0.08000000	     -3.59849425	      5.98461709	      5.24989524	      2.13839660	      0.96231324	      1.05805684	     30.40898203	    -11.17451591	      0.40585623	    100.17857388	      1.74844595	      6.14751143	     -7.26206153	      0.00000000	     11.69850758	      8.30095283	     -1.97408278	     41.41201804	      0.72277606	     28.04422881	      4.03902836	      0.00000000
      0.08666667	     -3.88988618	      5.49058403	      4.66112289	      2.13916290	      0.96501857	      1.05873885	     31.99127863	    -10.36270597	      0.62715749	     98.71658892	      1.72292950	      6.61459978	     -7.23790440	      0.00000000	      9.89866769	      7.66154758	     -2.07563556	     39.76787484	      0.69408035	     27.76502260	      4.33348439	      0.00000000
      0.09333333	     -4.17320182	      4.93300698	      4.06667637	      2.14030979	      0.96820617	      1.05945419	     33.35537384	     -9.45550711	      0.71849508	     96.91755699	      1.69153047	      7.03590471	     -7.31349493	      0.00000000	      8.01810654	      6.95845395	     -2.24588920	     37.96576259	      0.66262756	     27.12075969	      4.68138735	      0.00000000
      0.10000000	     -4.11430069	      4.19626864	      3.53692104	      2.14194564	      0.97245453	      1.06021976	     34.03756330	     -8.34230949	      0.53520974	     94.67056109	      1.65231300	      7.32166077	     -7.62952365	      0.00000000	      5.66788088	      6.08996558	     -2.28094589	     35.95669166	      0.62756266	     26.25542043	      5.13001245	      0.00000000
      0.10666667	     -4.78326017	      3.66496037	      3.03538511	      2.14353813	      0.97580518	      1.06090564	     35.47989902	     -7.51588580	      0.43824658	     92.36910128	      1.61214494	      7.71740140	     -7.66069827	      0.00000000	      4.16490928	      5.49138956	     -2.48613883	     34.00814647	      0.59355413	     24.83720676	      5.52636349	      0.00000000
